<svg width="127" height="100" viewBox="0 0 127 100" fill="none" xmlns="http://www.w3.org/2000/svg">
<g style="mix-blend-mode:screen" opacity="0.5" clip-path="url(#clip0_9_4112)">
<path d="M97.042 50.7387C97.141 36.9121 92.7639 23.0525 84.7135 11.7358C76.3882 0.0228551 64.7306 -8.50869 50.9943 -12.9341L50.0705 -10.1379L49.1577 -7.34179L49.2127 -7.31978C74.4966 0.82647 91.3452 24.1423 91.1582 50.6947C91.1142 56.8264 90.1354 62.9141 88.2328 68.8146C87.9909 69.5632 87.7379 70.3228 87.463 71.0603L92.9949 73.0749C93.2918 72.2602 93.5777 71.4346 93.8417 70.62C95.9203 64.158 96.9981 57.4649 97.042 50.7387Z" fill="#9ED8F5"/>
<path d="M-26.8478 31.7491C-26.6059 30.9895 -26.3419 30.23 -26.067 29.4594L-31.5989 27.4448C-31.9068 28.2815 -32.1927 29.1181 -32.4567 29.9437C-34.5353 36.4057 -35.6131 43.0988 -35.657 49.825C-35.756 63.6516 -31.3789 77.5112 -23.3285 88.8279C-15.0032 100.541 -3.34558 109.072 10.4016 113.498H10.4346L12.2713 107.906L12.1723 107.873C-13.1116 99.7263 -29.9602 76.4104 -29.7732 49.858C-29.7292 43.7263 -28.7504 37.6386 -26.8478 31.7381V31.7491Z" fill="#9ED8F5"/>
<path d="M122.667 29.8997V29.8887L112.329 32.1894L122.667 29.8997Z" fill="#9ED8F5"/>
<path d="M62.1791 143.848L60.7714 139.676C69.7565 136.626 78.3348 132.19 86.2532 126.4C99.6375 116.613 110.228 103.447 116.871 88.3435L109.47 85.085C104.861 95.532 98.1858 105.021 89.8165 112.936C87.6609 114.973 85.3844 116.91 83.0529 118.716L81.1392 116.217C80.6443 116.602 80.1494 116.976 79.6435 117.351C72.6709 122.448 65.1155 126.356 57.1861 129.042C44.2527 133.423 30.3405 134.524 16.4503 132.102C12.8431 131.475 9.25778 130.605 5.77148 129.504L2.41716 140.215L1.08643 144.453C4.35277 145.477 7.70708 146.347 11.0834 147.029C11.9962 147.217 12.909 147.382 13.8219 147.547C29.9776 150.365 46.7052 149.088 62.1791 143.848Z" fill="#9ED8F5"/>
<path d="M112.329 32.1895L122.667 29.8887L127 28.931C122.513 8.70845 111.493 -9.99489 95.9645 -23.7334L93.0281 -20.4089C80.0947 -31.8577 64.2249 -39.5526 46.8594 -42.5799C38.1712 -44.099 29.3179 -44.3853 20.5747 -43.4495L21.4325 -35.4024C29.4279 -36.272 37.5003 -36.0078 45.5287 -34.6098C51.7754 -33.5199 57.9122 -31.7366 63.752 -29.3037L62.5532 -26.4085C70.9885 -22.9078 78.764 -18.0531 85.6046 -11.9984L85.4176 -11.7783C98.45 -0.252419 107.688 15.4456 111.449 32.3986L112.34 32.2005L112.329 32.1895Z" fill="#9ED8F5"/>
<path d="M18.5289 -12.648C5.78249 -10.5234 -6.26008 -4.2596 -15.3992 4.97648C-24.8463 14.5428 -30.8291 26.6521 -32.6987 40.0274L-29.9713 40.4347L-27.2438 40.831V40.7759C-23.7905 16.1611 -5.03932 -3.12573 19.4307 -7.20986C25.0726 -8.15659 30.8464 -8.22264 36.5763 -7.41902C37.3021 -7.31995 38.039 -7.19886 38.7648 -7.06675L39.7326 -12.4939C38.9408 -12.637 38.127 -12.7691 37.3351 -12.8792C31.0554 -13.7599 24.7207 -13.6828 18.5289 -12.648Z" fill="#0081CC"/>
<path d="M23.8517 106.75C23.1149 106.651 22.367 106.529 21.6192 106.397L20.6514 111.824C21.4652 111.968 22.29 112.1 23.0929 112.21C29.3726 113.09 35.7073 113.013 41.8991 111.979C54.6455 109.854 66.6881 103.59 75.8272 94.3541C85.2743 84.7877 91.2571 72.6785 93.1267 59.2922V59.2592L87.6828 58.4666V58.5656C84.2295 83.1805 65.4783 102.467 40.9973 106.551C35.3554 107.498 29.5816 107.564 23.8517 106.761V106.75Z" fill="#0081CC"/>
<path d="M71.3402 -8.4206C70.5483 -9.01506 69.7345 -9.5875 68.9097 -10.1489L67.502 -8.07934L67.5679 -8.03531C86.2642 4.78953 97.4159 26.0028 97.4159 48.7132C97.4159 62.5838 93.2588 75.9921 85.3953 87.4849C84.8784 88.2335 84.3396 88.9931 83.8007 89.7197L85.8132 91.2168L85.8352 91.1948L89.1786 93.7047C89.7725 92.9011 90.3553 92.0865 90.9162 91.2608C99.5495 78.6452 104.114 63.9379 104.114 48.7022C104.114 27.4339 95.1944 7.37651 79.8305 -6.79135L77.015 -3.72C75.2224 -5.37126 73.3198 -6.95648 71.3512 -8.4206H71.3402Z" fill="#0081CC"/>
<path d="M105.653 58.918L116.046 60.3051C116.046 60.3051 116.046 60.2721 116.046 60.2611L105.653 58.885C105.653 58.885 105.653 58.907 105.653 58.918Z" fill="black"/>
<path d="M86.6602 91.8441L90.0695 94.376V94.365L86.6822 91.811L86.6602 91.8441Z" fill="white"/>
<path d="M96.9871 11.5486L96.7231 11.6917C102.838 22.9423 106.071 35.7011 106.071 48.57C106.071 49.2965 106.071 50.0341 106.038 50.7607C105.961 53.4687 105.752 56.1878 105.4 58.8519L105.664 58.8849C106.115 55.4943 106.346 52.0486 106.346 48.625C106.346 35.4259 103.102 22.7772 96.9981 11.5486H96.9871Z" fill="black"/>
<path d="M109.811 4.56927L106.203 6.53978C101.958 -1.2652 96.4922 -8.46472 89.9045 -14.8276C78.7418 -25.6049 64.9286 -33.2557 49.9606 -36.9656L48.146 -29.6119C58.4949 -27.036 68.3049 -22.4014 76.9382 -15.9505C79.1597 -14.2882 81.3153 -12.5048 83.3389 -10.6334L81.3483 -8.46472C81.7772 -8.06842 82.2061 -7.67211 82.635 -7.2648C88.4418 -1.6505 93.2589 4.69037 96.9981 11.5706C103.113 22.7993 106.346 35.448 106.346 48.6471C106.346 52.0707 106.115 55.5274 105.664 58.9069L116.057 60.283L120.17 60.8224C120.588 57.652 120.841 54.4155 120.94 51.19C120.962 50.3204 120.973 49.4507 120.973 48.581C120.973 33.2242 117.113 18.0106 109.811 4.58028V4.56927Z" fill="#0081CC"/>
</g>
<defs>
<clipPath id="clip0_9_4112">
<rect width="193" height="193" fill="white" transform="translate(-66 -44)"/>
</clipPath>
</defs>
</svg>
