<svg width="29" height="25" viewBox="0 0 29 25" fill="none" xmlns="http://www.w3.org/2000/svg">
<path d="M14.4291 6.71445C15.5289 6.71445 16.4227 5.8206 16.4227 4.72086C16.4227 3.62111 15.5093 2.67334 14.4291 2.67334C13.349 2.67334 12.4355 3.61131 12.4355 4.72086C12.4355 5.83041 13.3294 6.71445 14.4291 6.71445Z" fill="white"/>
<path d="M5.61957 16.4988C4.53944 16.4988 3.62598 17.4367 3.62598 18.5463C3.62598 19.6558 4.51983 20.5399 5.61957 20.5399C6.71932 20.5399 7.61317 19.646 7.61317 18.5463C7.61317 17.4466 6.69971 16.4988 5.61957 16.4988Z" fill="white"/>
<path d="M23.2728 13.7623C22.4378 13.7623 21.6468 13.947 20.9327 14.2738L18.1875 9.79312C19.3297 8.76365 20.0487 7.27499 20.0487 5.61965C20.0487 2.52141 17.5273 0 14.429 0C11.3308 0 8.80941 2.52141 8.80941 5.61965C8.80941 7.28479 9.53821 8.78325 10.6935 9.81273L7.95968 14.2722C7.24721 13.9437 6.45467 13.7607 5.61965 13.7607C2.52141 13.7607 0 16.2821 0 19.3804C0 22.4786 2.52141 25 5.61965 25C8.49402 25 10.87 22.8316 11.1985 20.0438H17.6923C18.0224 22.8299 20.3984 25 23.2711 25C26.3694 25 28.8908 22.4786 28.8908 19.3804C28.8908 16.2821 26.3694 13.7607 23.2711 13.7607L23.2728 13.7623ZM10.0399 5.62128C10.0399 3.20119 12.009 1.23374 14.4274 1.23374C16.8459 1.23374 18.815 3.20282 18.815 5.62128C18.815 7.38447 17.7691 8.90745 16.2641 9.6052V8.86333C16.2641 7.85019 15.4406 7.02497 14.4258 7.02497C13.411 7.02497 12.5874 7.85019 12.5874 8.86333V9.6052C11.0841 8.90908 10.0366 7.3861 10.0366 5.62128H10.0399ZM11.5563 10.45C12.3979 10.9517 13.38 11.2409 14.4274 11.2409C15.4749 11.2409 16.4782 10.9452 17.3263 10.4337L20.0095 14.8114C18.6875 15.7576 17.792 17.2626 17.6695 18.9784H11.2246C11.102 17.2626 10.2066 15.7576 8.88457 14.8114L11.558 10.45H11.5563ZM7.45637 23.3659V22.6878C7.45637 21.6746 6.63279 20.8494 5.61802 20.8494C4.60324 20.8494 3.77966 21.6746 3.77966 22.6878V23.3659C2.27629 22.6698 1.22884 21.1468 1.22884 19.382C1.22884 16.9619 3.19792 14.9944 5.61638 14.9944C8.03484 14.9944 10.0039 16.9635 10.0039 19.382C10.0039 21.1452 8.95811 22.6681 7.45311 23.3659H7.45637ZM25.1095 23.3659V22.6878C25.1095 21.6746 24.2859 20.8494 23.2711 20.8494C22.2564 20.8494 21.4328 21.6746 21.4328 22.6878V23.3659C19.9294 22.6698 18.882 21.1468 18.882 19.382C18.882 16.9619 20.851 14.9944 23.2695 14.9944C25.688 14.9944 27.657 16.9635 27.657 19.382C27.657 21.1452 26.6112 22.6681 25.1062 23.3659H25.1095Z" fill="white"/>
<path d="M23.2719 16.4988C22.1918 16.4988 21.2783 17.4367 21.2783 18.5463C21.2783 19.6558 22.1722 20.5399 23.2719 20.5399C24.3717 20.5399 25.2655 19.646 25.2655 18.5463C25.2655 17.4466 24.3521 16.4988 23.2719 16.4988Z" fill="white"/>
</svg>
