<svg width="32" height="20" viewBox="0 0 32 20" fill="none" xmlns="http://www.w3.org/2000/svg">
<g clip-path="url(#clip0_5_98)">
<path d="M14.0166 5.47751L12.7775 0.422318C12.6705 -0.016012 12.2261 -0.143992 11.9763 0.191955L9.09904 4.06334L10.403 4.43768C10.0981 5.32073 9.6959 6.1718 9.21257 6.96207C8.52813 8.07869 7.68475 9.07373 6.73432 9.9056C5.78064 10.7407 4.71992 11.4126 3.59108 11.9053C2.46549 12.398 1.27502 12.7084 0.0585938 12.8331C0.665183 12.8939 1.27826 12.9099 1.89458 12.8779C2.20274 12.8619 2.5109 12.8331 2.81906 12.7915C3.12722 12.7499 3.43538 12.6956 3.7403 12.6284C4.96645 12.3596 6.17963 11.8861 7.32793 11.1982C7.90208 10.8526 8.46326 10.4559 8.99848 10.0016C9.53371 9.54726 10.0462 9.03854 10.5263 8.47543C11.0064 7.91232 11.454 7.29482 11.8563 6.62293C12.1482 6.1366 12.4174 5.62469 12.6607 5.08717L14.0134 5.47751H14.0166Z" fill="white"/>
<path d="M2.25768 18.1667H0.557932C0.249772 18.1667 0 18.4131 0 18.7171V20.0001H2.81561V18.7171C2.81561 18.4131 2.56584 18.1667 2.25768 18.1667Z" fill="white"/>
<path d="M6.22496 16.2534H4.52522C4.21706 16.2534 3.96729 16.4998 3.96729 16.8037V20H6.7829V16.8037C6.7829 16.4998 6.53312 16.2534 6.22496 16.2534Z" fill="white"/>
<path d="M10.1888 13.3066H8.48908C8.18092 13.3066 7.93115 13.553 7.93115 13.857V20H10.7468V13.857C10.7468 13.553 10.497 13.3066 10.1888 13.3066Z" fill="white"/>
<path d="M14.1561 9.56006H12.4564C12.1482 9.56006 11.8984 9.80642 11.8984 10.1104V20H14.714V10.1104C14.714 9.80642 14.4643 9.56006 14.1561 9.56006Z" fill="white"/>
<path d="M31.7569 18.7042L27.4199 14.7689C28.3282 13.633 28.7953 12.2317 28.7337 10.7695C28.6623 9.15375 27.9584 7.66279 26.7517 6.56856C25.545 5.47434 23.9718 4.90803 22.3369 4.97842C20.9778 5.03601 19.7094 5.52873 18.6812 6.37339V3.8458C18.6812 3.50345 18.4606 3.2251 18.1849 3.2251H16.3586C16.0861 3.2251 15.8623 3.50345 15.8623 3.8458V20H18.6779V15.6807C19.784 16.5862 21.1497 17.0821 22.5899 17.0821C22.6775 17.0821 22.7683 17.0821 22.8592 17.0757C24.1437 17.0213 25.3439 16.5798 26.3397 15.8183L30.7286 19.8016C30.8746 19.9328 31.0562 20 31.2411 20C31.4455 20 31.6498 19.92 31.799 19.7601C32.0813 19.4561 32.0618 18.9826 31.7536 18.7042H31.7569ZM22.8073 15.8535C21.5033 15.9079 20.2512 15.4567 19.2845 14.5865C19.0607 14.3817 18.8596 14.1609 18.6779 13.9242C18.2141 13.1499 17.9448 12.2221 17.9091 11.2334C17.8702 10.104 18.1427 9.01937 18.6779 8.12671C18.7752 7.99873 18.879 7.87715 18.9893 7.75877C19.8749 6.80852 21.0816 6.25501 22.3888 6.20062C22.4602 6.20062 22.5315 6.19742 22.6029 6.19742C23.8323 6.19742 25.0001 6.64535 25.9083 7.47082C26.8717 8.34428 27.4329 9.53449 27.4881 10.8239C27.5432 12.1133 27.0858 13.3451 26.2035 14.2985C25.318 15.2488 24.1113 15.8023 22.804 15.8567L22.8073 15.8535Z" fill="white"/>
<path d="M24.1499 6.94614C23.3746 6.66139 22.6707 6.68059 22.2166 6.74778C22.0317 6.77337 21.9052 6.94294 21.9311 7.12531C21.9571 7.30769 22.1257 7.43247 22.3139 7.40687C22.6902 7.35248 23.2708 7.33648 23.9131 7.57324C24.5294 7.79721 24.9511 8.16195 25.1944 8.43071C25.2592 8.50429 25.3533 8.53949 25.4441 8.53949C25.5252 8.53949 25.6063 8.51069 25.668 8.4531C25.8074 8.33152 25.8172 8.12036 25.6939 7.98598C25.3987 7.66283 24.8927 7.2245 24.1499 6.95254V6.94614Z" fill="white"/>
</g>
<defs>
<clipPath id="clip0_5_98">
<rect width="32" height="20" fill="white"/>
</clipPath>
</defs>
</svg>
