<svg width="20" height="20" viewBox="0 0 20 20" fill="none" xmlns="http://www.w3.org/2000/svg">
<path d="M10 0C4.48615 0 0 4.48615 0 10C0 15.5138 4.48615 20 10 20C15.5138 20 20 15.5138 20 10C20 4.48615 15.5138 0 10 0ZM10 18.5815C5.26769 18.5815 1.41847 14.7323 1.41847 10C1.41847 5.26769 5.26769 1.41846 10 1.41846C14.7323 1.41846 18.5815 5.26769 18.5815 10C18.5815 14.7323 14.7323 18.5815 10 18.5815Z" fill="white"/>
<path d="M12.2844 5.18921L10.0413 9.59229H10.0136L7.77209 5.18921H5.08594L7.96594 10.0354H6.09671V11.3784H8.76747L8.78133 11.42V12.2923H6.09671V13.6354H8.78133V15.2954H11.2183V13.6354H13.9044V12.2923H11.2183V11.42L11.2321 11.3784H13.9044V10.0354H12.0352L14.9152 5.18921H12.2844Z" fill="white"/>
</svg>
