<svg width="20" height="20" viewBox="0 0 20 20" fill="none" xmlns="http://www.w3.org/2000/svg">
<path d="M9.99851 5.70068C7.62733 5.70068 5.69775 7.63025 5.69775 10.0014C5.69775 12.3726 7.62733 14.3022 9.99851 14.3022C12.3697 14.3022 14.2992 12.3726 14.2992 10.0014C14.2992 7.63025 12.3697 5.70068 9.99851 5.70068ZM13.2991 10.0014C13.2991 11.8217 11.8188 13.302 9.99851 13.302C8.17819 13.302 6.69793 11.8217 6.69793 10.0014C6.69793 8.18111 8.17819 6.70086 9.99851 6.70086C11.8188 6.70086 13.2991 8.18111 13.2991 10.0014Z" fill="white"/>
<path d="M19.9538 9.03349C19.9308 8.80422 19.7569 8.62111 19.5291 8.58726L18.1304 8.38107C18.0597 8.02716 17.9658 7.67633 17.8504 7.33473C17.952 7.26087 18.1089 7.13624 18.3659 6.93159L18.9598 6.46073C19.1399 6.31763 19.1999 6.07144 19.1045 5.86217C18.8383 5.27591 18.5121 4.71274 18.1366 4.18649C18.0027 3.99877 17.7596 3.92799 17.5457 4.01262L16.2317 4.53271C15.9947 4.26343 15.7393 4.00646 15.4684 3.7695L15.9885 2.45542C16.0732 2.24154 16.0008 1.99842 15.8147 1.86455C15.29 1.4891 14.7252 1.16443 14.139 0.896694C13.9282 0.801293 13.6835 0.861303 13.5404 1.04133L12.6618 2.14922C12.3217 2.03381 11.9725 1.93995 11.6201 1.87071L11.4139 0.472005C11.38 0.244273 11.1969 0.0688581 10.9677 0.0473159C10.326 -0.015772 9.67514 -0.015772 9.03349 0.0473159C8.80422 0.0688581 8.62111 0.244273 8.58726 0.472005L8.38107 1.87071C8.02716 1.94149 7.67633 2.03535 7.33473 2.15076C7.26087 2.0492 7.13623 1.89225 6.93158 1.63528L6.46074 1.04133C6.31764 0.861303 6.07144 0.801293 5.86217 0.896694C5.27592 1.16289 4.7112 1.4891 4.1865 1.86455C3.99877 1.99842 3.92799 2.24154 4.01262 2.45542L4.53271 3.7695C4.2619 4.00646 4.00647 4.26189 3.76951 4.53271L2.45543 4.01262C2.24155 3.92799 1.99843 4.00031 1.86456 4.18649C1.48911 4.7112 1.16444 5.27591 0.896697 5.86217C0.801296 6.07144 0.861297 6.31763 1.04133 6.46073L2.14922 7.33935C2.03382 7.67941 1.93995 8.0287 1.8707 8.38107L0.472006 8.58726C0.244275 8.62111 0.0703968 8.80422 0.0473159 9.03349C-0.015772 9.67514 -0.015772 10.326 0.0473159 10.9677C0.0703968 11.1969 0.244275 11.38 0.472006 11.4139L1.8707 11.6201C1.94149 11.974 2.03536 12.3248 2.15076 12.6664C2.04921 12.7403 1.89226 12.8649 1.63529 13.0696L1.04133 13.5404C0.861297 13.6835 0.801296 13.9297 0.896697 14.139C1.1629 14.7252 1.48911 15.2884 1.86456 15.8147C1.99843 16.0024 2.24155 16.0732 2.45543 15.9885L3.76951 15.4684C4.00647 15.7377 4.2619 15.9932 4.53271 16.2317L4.01262 17.5457C3.92799 17.7596 4.00031 18.0027 4.1865 18.1366C4.7112 18.512 5.27438 18.8367 5.86217 19.1045C6.07144 19.1999 6.31764 19.1399 6.46074 18.9598L7.33935 17.8519C7.67941 17.9673 8.0287 18.0612 8.38107 18.1304L8.58726 19.5291C8.62111 19.7569 8.80422 19.9323 9.03349 19.9538C9.35508 19.9846 9.67822 20 10.0014 20C10.3245 20 10.6476 19.9846 10.9692 19.9538C11.1985 19.9323 11.3816 19.7569 11.4154 19.5291L11.6216 18.1304C11.974 18.0597 12.3233 17.9658 12.6633 17.8519L13.542 18.9598C13.6851 19.1399 13.9313 19.1999 14.1405 19.1045C14.7268 18.8383 15.29 18.512 15.8162 18.1366C16.0039 18.0027 16.0747 17.7596 15.9901 17.5457L15.47 16.2317C15.7393 15.9947 15.9962 15.7393 16.2332 15.4684L17.5473 15.9885C17.7611 16.0732 18.0043 16.0008 18.1382 15.8147C18.5136 15.29 18.8383 14.7252 19.106 14.139C19.2014 13.9297 19.1414 13.6835 18.9614 13.5404L17.8535 12.6618C17.9689 12.3217 18.0627 11.9725 18.132 11.6201L19.5307 11.4139C19.7584 11.38 19.9323 11.1969 19.9554 10.9677C20.0185 10.326 20.0185 9.67514 19.9554 9.03349H19.9538ZM17.2057 11.1046C17.1241 11.6324 16.9856 12.1525 16.7918 12.651C16.7117 12.8572 16.7733 13.088 16.9472 13.225L18.0243 14.079C17.8796 14.3652 17.7165 14.6452 17.5411 14.9145L16.2624 14.4083C16.0562 14.3267 15.8254 14.3883 15.6885 14.5606C15.3546 14.9776 14.9745 15.3577 14.5575 15.6916C14.3852 15.83 14.3236 16.0609 14.4052 16.2655L14.9114 17.5442C14.6421 17.7196 14.3621 17.8812 14.0759 18.0274L13.2219 16.9502C13.085 16.7764 12.8542 16.7148 12.648 16.7948C12.1494 16.9887 11.6293 17.1287 11.1031 17.2087C10.8846 17.2426 10.7169 17.4119 10.683 17.6304L10.4814 18.9906C10.1598 19.0075 9.83671 19.0075 9.51665 18.9906L9.31507 17.6304C9.28276 17.4119 9.1135 17.2426 8.89654 17.2087C8.36876 17.1287 7.84866 16.9887 7.35011 16.7948C7.14392 16.7148 6.91312 16.7764 6.77617 16.9502L5.92219 18.0274C5.63598 17.8812 5.35593 17.7196 5.08665 17.5442L5.5929 16.2655C5.67445 16.0593 5.6129 15.8285 5.44056 15.6916C5.02357 15.3577 4.64351 14.9776 4.3096 14.5606C4.17112 14.3883 3.94029 14.3267 3.73564 14.4083L2.45697 14.9145C2.28155 14.6452 2.11999 14.3652 1.97381 14.079L3.05092 13.225C3.22325 13.088 3.28634 12.8572 3.20633 12.651C3.01245 12.154 2.87242 11.6339 2.7924 11.1046C2.75855 10.8861 2.58929 10.7184 2.37079 10.6861L1.01056 10.4845C0.993635 10.1645 0.993635 9.83978 1.01056 9.51973L2.37079 9.31815C2.58929 9.28584 2.75855 9.11658 2.7924 8.89962C2.87395 8.37183 3.01245 7.85174 3.20633 7.3532C3.28634 7.14701 3.22479 6.9162 3.05092 6.77925L1.97381 5.92526C2.11845 5.63905 2.28155 5.35901 2.45697 5.08973L3.73564 5.59597C3.94183 5.67752 4.17266 5.61597 4.3096 5.44363C4.64351 5.02664 5.02511 4.64657 5.44056 4.31267C5.6129 4.17418 5.67445 3.94337 5.5929 3.73872L5.08665 2.46004C5.35593 2.28463 5.63598 2.12306 5.92219 1.97688L6.77617 3.05399C6.91312 3.22787 7.14392 3.28942 7.35011 3.2094C7.84866 3.01552 8.36876 2.8755 8.895 2.79548C9.1135 2.76163 9.28276 2.59237 9.31507 2.37387L9.51665 1.01364C9.83825 0.996711 10.1614 0.996711 10.4814 1.01364L10.683 2.37387C10.7153 2.59237 10.8846 2.76163 11.1015 2.79548C11.6293 2.8755 12.1494 3.01552 12.648 3.2094C12.8542 3.28942 13.085 3.22787 13.2219 3.05399L14.0759 1.97688C14.3621 2.12306 14.6421 2.28463 14.9114 2.46004L14.4052 3.73872C14.3236 3.94491 14.3852 4.17572 14.5575 4.31267C14.9745 4.64657 15.3546 5.02664 15.6885 5.44363C15.827 5.61597 16.0578 5.67752 16.2624 5.59597L17.5411 5.08973C17.7165 5.35901 17.8781 5.63905 18.0243 5.92526L16.9472 6.77925C16.7733 6.9162 16.7117 7.14701 16.7918 7.3532C16.9856 7.85021 17.1257 8.37029 17.2057 8.89962C17.2395 9.11812 17.4088 9.28584 17.6273 9.31815L18.9875 9.51973C19.0044 9.83978 19.0044 10.1645 18.9875 10.4845L17.6273 10.6861C17.4088 10.7184 17.2395 10.8861 17.2057 11.1046Z"/>
</svg>
