<svg width="40" height="25" viewBox="0 0 40 25" fill="none" xmlns="http://www.w3.org/2000/svg">
<g clip-path="url(#clip0_9_9620)">
<path d="M17.5203 6.84701L15.9714 0.52802C15.8376 -0.019893 15.2821 -0.179867 14.9699 0.240065L11.3733 5.07929L13.0033 5.54722C12.6222 6.65104 12.1194 7.71487 11.5152 8.70271C10.6597 10.0985 9.60545 11.3423 8.41741 12.3821C7.22531 13.426 5.89941 14.2658 4.48836 14.8817C3.08137 15.4976 1.59328 15.8856 0.0727539 16.0415C0.83099 16.1175 1.59734 16.1375 2.36774 16.0975C2.75294 16.0775 3.13814 16.0415 3.52334 15.9895C3.90854 15.9376 4.29374 15.8696 4.67488 15.7856C6.20757 15.4496 7.72405 14.8577 9.15942 13.9979C9.87711 13.5659 10.5786 13.07 11.2476 12.5021C11.9166 11.9342 12.5573 11.2983 13.1574 10.5944C13.7575 9.89052 14.3171 9.11865 14.8198 8.27878C15.1848 7.67088 15.5213 7.03098 15.8254 6.35909L17.5162 6.84701H17.5203Z" fill="white"/>
<path d="M2.8221 22.7083H0.697415C0.312215 22.7083 0 23.0162 0 23.3961V24.9999H3.51951V23.3961C3.51951 23.0162 3.2073 22.7083 2.8221 22.7083Z" fill="white"/>
<path d="M7.78108 20.3167H5.6564C5.2712 20.3167 4.95898 20.6246 4.95898 21.0045V24.9999H8.4785V21.0045C8.4785 20.6246 8.16628 20.3167 7.78108 20.3167Z" fill="white"/>
<path d="M12.7362 16.6333H10.6115C10.2263 16.6333 9.91406 16.9413 9.91406 17.3212V25H13.4336V17.3212C13.4336 16.9413 13.1214 16.6333 12.7362 16.6333Z" fill="white"/>
<path d="M17.6947 11.9502H15.57C15.1848 11.9502 14.8726 12.2581 14.8726 12.6381V25.0001H18.3921V12.6381C18.3921 12.2581 18.0799 11.9502 17.6947 11.9502Z" fill="white"/>
<path d="M39.6959 23.3802L34.2747 18.4609C35.41 17.0412 35.9939 15.2895 35.9168 13.4617C35.8276 11.4421 34.9478 9.57836 33.4394 8.21058C31.931 6.8428 29.9645 6.13491 27.9209 6.2229C26.222 6.29489 24.6366 6.91079 23.3512 7.96662V4.80713C23.3512 4.37919 23.0755 4.03125 22.7308 4.03125H20.448C20.1074 4.03125 19.8276 4.37919 19.8276 4.80713V24.9999H23.3471V19.6008C24.7298 20.7326 26.4369 21.3525 28.2372 21.3525C28.3466 21.3525 28.4602 21.3525 28.5737 21.3445C30.1794 21.2765 31.6796 20.7246 32.9244 19.7727L38.4105 24.7519C38.593 24.9159 38.82 24.9999 39.0511 24.9999C39.3066 24.9999 39.562 24.8999 39.7486 24.6999C40.1013 24.32 40.077 23.7281 39.6918 23.3802H39.6959ZM28.5088 19.8167C26.8788 19.8847 25.3137 19.3208 24.1054 18.233C23.8256 17.977 23.5742 17.7011 23.3471 17.4051C22.7673 16.4373 22.4308 15.2775 22.3862 14.0417C22.3375 12.6299 22.6781 11.2741 23.3471 10.1583C23.4688 9.9983 23.5985 9.84632 23.7364 9.69834C24.8433 8.51053 26.3517 7.81864 27.9858 7.75066C28.075 7.75066 28.1642 7.74666 28.2534 7.74666C29.7901 7.74666 31.2498 8.30657 32.3852 9.3384C33.5894 10.4302 34.2909 11.918 34.3598 13.5297C34.4287 15.1415 33.857 16.6812 32.7541 17.873C31.6472 19.0608 30.1388 19.7527 28.5048 19.8207L28.5088 19.8167Z" fill="white"/>
<path d="M30.1873 8.6825C29.2182 8.32655 28.3384 8.35055 27.7707 8.43454C27.5396 8.46653 27.3814 8.6785 27.4139 8.90646C27.4463 9.13442 27.6572 9.2904 27.8923 9.2584C28.3627 9.19041 29.0885 9.17042 29.8913 9.46637C30.6617 9.74633 31.1888 10.2023 31.493 10.5382C31.574 10.6302 31.6916 10.6742 31.8052 10.6742C31.9065 10.6742 32.0079 10.6382 32.0849 10.5662C32.2593 10.4142 32.2715 10.1503 32.1174 9.98229C31.7484 9.57835 31.1159 9.03044 30.1873 8.69049V8.6825Z" fill="white"/>
</g>
<defs>
<clipPath id="clip0_9_9620">
<rect width="40" height="25" fill="white"/>
</clipPath>
</defs>
</svg>
