<svg width="18" height="20" viewBox="0 0 18 20" fill="none" xmlns="http://www.w3.org/2000/svg">
<path d="M17.3524 12.7625C17.3251 12.7194 17.2965 12.6763 17.2679 12.6305C17.5253 11.8265 17.6656 10.9689 17.6656 10.0799C17.6656 8.74638 17.3511 7.4861 16.796 6.36701C16.9364 6.20229 17.0781 6.03887 17.2159 5.87153C17.884 5.0662 18.2649 3.80331 17.5253 2.93523C17.5084 2.91562 17.4915 2.89863 17.4707 2.88032C16.5087 2.06454 14.8343 2.76136 14.0283 3.17971C13.1001 2.54434 12.038 2.09461 10.894 1.8789C10.8901 1.83314 10.8875 1.78869 10.8836 1.74293C10.8602 1.47231 10.829 1.10234 10.6379 0.765041C10.1972 -0.0141363 9.15334 -0.159252 8.43965 0.154511C7.83515 0.418595 7.21896 1.15855 6.79126 2.13252C6.78866 2.13775 6.78736 2.14429 6.78606 2.14952C5.73177 2.49727 4.77108 3.05159 3.94949 3.7654C3.189 3.35489 1.90201 3.0542 1.24032 3.63074C0.659227 4.13668 0.678727 5.01391 0.941324 5.61267C1.10252 5.97873 1.40672 6.44284 1.72392 6.82458C1.30142 7.8247 1.06612 8.92548 1.06612 10.0799C1.06612 10.7623 1.14932 11.4238 1.30402 12.0592C1.29882 12.0657 1.29232 12.0696 1.28712 12.0762C0.540928 13.0096 -0.272863 14.3497 0.088533 15.4282C0.40963 16.3865 1.43402 16.8218 2.25041 16.8218C2.8627 16.8218 3.4282 16.6375 3.95989 16.4035C4.14449 16.563 4.33689 16.716 4.53449 16.8585C4.52539 16.9264 4.51369 16.9996 4.50329 17.0781C4.36939 17.9841 4.18609 19.2261 5.03498 19.8287C5.06228 19.8483 5.09348 19.8653 5.12598 19.8797C5.31578 19.9595 5.51468 20 5.71747 20C6.45847 20 7.22026 19.4718 7.98205 18.4312C8.00935 18.3946 8.03405 18.3567 8.06135 18.3188C8.48644 18.3867 8.92194 18.422 9.36524 18.422C11.5648 18.422 13.5655 17.5553 15.0514 16.1459C15.4193 16.2623 15.8405 16.3342 16.1928 16.3342H16.2253C16.8142 16.3264 17.2692 16.1577 17.5786 15.8322C17.8749 15.5197 18.0166 15.087 17.9984 14.5458C17.9724 13.7287 17.6838 13.2789 17.3485 12.7573L17.3524 12.7625ZM5.43018 17.4232C5.93587 17.6991 6.47407 17.9213 7.03696 18.0874C6.64436 18.5776 6.05287 19.162 5.55628 19.0077C5.27418 18.7423 5.34958 18.0037 5.43148 17.4232H5.43018ZM15.6299 6.24151C14.0075 8.08748 12.2824 9.73996 10.4637 11.1924C10.6405 10.1897 10.7744 9.18042 10.8667 8.16853C11.5258 7.98812 12.012 7.38282 12.012 6.66378C12.012 5.99965 11.5973 5.43226 11.0149 5.2074C11.0227 4.43214 11.0045 3.65558 10.9629 2.87902C12.9337 3.31959 14.6081 4.55765 15.6312 6.2402L15.6299 6.24151ZM14.8252 15.0033C14.4716 14.8373 14.1232 14.6673 13.7774 14.4922C13.7904 14.4189 13.7982 14.3444 13.7982 14.2686C13.7982 13.5757 13.2379 13.0109 12.5476 13.0109C12.2135 13.0109 11.9106 13.1443 11.6857 13.36C11.2255 13.0933 10.7692 12.8174 10.3168 12.5311C12.3617 10.978 14.2935 9.18303 16.1031 7.15926C16.4892 8.05479 16.7037 9.04184 16.7037 10.0786C16.7037 11.969 15.9926 13.696 14.8252 15.002V15.0033ZM10.0529 5.16033C9.39514 5.34075 8.90894 5.94605 8.90894 6.66509C8.90894 7.32922 9.32364 7.8953 9.90603 8.12147C9.78903 9.38829 9.60443 10.6473 9.35224 11.8984C8.34475 11.2186 7.34896 10.4825 6.35317 9.68113C6.38567 9.56608 6.40517 9.4445 6.40517 9.31769C6.40517 8.5908 5.81627 7.99858 5.09348 7.99858C4.88808 7.99858 4.69308 8.04826 4.52019 8.13323C3.97939 7.65605 3.4347 7.15796 2.8861 6.63763C4.11849 4.3001 6.56247 2.70383 9.37044 2.70383C9.57973 2.70383 9.78773 2.71429 9.99313 2.73259C10.0412 3.54315 10.062 4.35239 10.0555 5.16164L10.0529 5.16033ZM14.8746 3.84384C15.7534 3.45294 16.4853 3.35228 16.822 3.59675C17.1405 4.01902 16.8857 4.76029 16.4788 5.25185C16.4151 5.32898 16.3501 5.40219 16.2864 5.47802C15.8873 4.87402 15.4128 4.32494 14.8746 3.84384ZM9.36784 1.73509C8.91414 1.73509 8.46954 1.773 8.03535 1.8436C8.29145 1.44486 8.57484 1.15071 8.82444 1.0422C9.15204 0.89839 9.63303 0.946762 9.80203 1.24484C9.87353 1.37165 9.89953 1.55075 9.91773 1.75601C9.73573 1.74424 9.55243 1.73509 9.36654 1.73509H9.36784ZM2.20881 5.87022C2.04891 5.64405 1.90851 5.41134 1.82531 5.22309C1.69792 4.93155 1.68102 4.53019 1.87471 4.36285C2.03201 4.22558 2.64041 4.25042 3.2189 4.48574C2.8367 4.91063 2.49871 5.37474 2.20881 5.87153V5.87022ZM3.86629 8.84704C3.81039 8.99347 3.77919 9.15165 3.77919 9.31638C3.77919 10.0433 4.36809 10.6355 5.09088 10.6355C5.33658 10.6355 5.56668 10.5662 5.76297 10.4472C6.71326 11.2107 7.66095 11.9167 8.62164 12.573C7.17996 13.5849 5.68497 14.4804 4.14189 15.2491C2.8393 13.9169 2.03331 12.0919 2.03331 10.0799C2.03331 9.20003 2.18801 8.35679 2.47011 7.57369C2.9394 8.01427 3.4048 8.43785 3.86759 8.84704H3.86629ZM3.2098 15.6648C2.8939 15.7786 2.57411 15.8544 2.25431 15.8544C1.76812 15.8544 1.16492 15.5969 1.00502 15.1197C0.864625 14.7013 1.11162 13.9993 1.66932 13.1848C2.03721 14.1026 2.56111 14.9419 3.2098 15.6648ZM8.98824 13.4947C8.95314 13.6332 8.91934 13.7731 8.88294 13.9117C8.60214 14.9798 8.23295 16.1799 7.61285 17.2415C6.61966 16.9957 5.70447 16.5447 4.91538 15.9368C6.31417 15.2203 7.67265 14.4059 8.98694 13.4947H8.98824ZM9.81373 14.1601C9.87483 13.93 9.93203 13.6986 9.98793 13.4672C10.4208 13.7391 10.8576 14.0019 11.2983 14.2555C11.2983 14.2608 11.2983 14.2647 11.2983 14.2699C11.2983 14.9628 11.8586 15.5276 12.5489 15.5276C12.8076 15.5276 13.0494 15.4478 13.2483 15.3119C13.5252 15.4517 13.8034 15.5903 14.0855 15.725C12.8089 16.8048 11.1644 17.4572 9.36914 17.4572C9.11694 17.4572 8.86604 17.4441 8.62034 17.4193C9.19234 16.3473 9.54333 15.1942 9.81503 14.1614L9.81373 14.1601ZM16.822 13.7444C16.9546 13.9941 17.03 14.2294 17.0404 14.5824C17.0495 14.8543 16.9975 15.0504 16.8857 15.1681C16.7635 15.2962 16.5321 15.3655 16.2162 15.3707C16.0953 15.3733 15.9536 15.3602 15.808 15.3367C16.2032 14.8491 16.5438 14.3144 16.822 13.7444Z" fill="white"/>
</svg>
