<svg width="37" height="37" viewBox="0 0 37 37" fill="none" xmlns="http://www.w3.org/2000/svg">
<g clip-path="url(#clip0_7_240)">
<path d="M24.2245 19.0016C27.3864 15.8396 27.3864 10.7131 24.2245 7.55115C21.0625 4.38919 15.936 4.38919 12.774 7.55115C9.6121 10.7131 9.6121 15.8396 12.774 19.0016C15.936 22.1635 21.0625 22.1635 24.2245 19.0016Z" fill="#ECECEC"/>
<path d="M18.4998 35.9844C23.7528 35.9844 28.4727 33.6549 31.6807 29.976C29.4515 24.9108 24.3901 21.3728 18.4998 21.3728C12.6094 21.3728 7.54804 24.9108 5.31885 29.976C8.5268 33.6549 13.2454 35.9844 18.4998 35.9844Z" fill="#ECECEC"/>
<path d="M18.5 0C8.2998 0 0 8.2998 0 18.5C0 23.3303 1.86231 27.7341 4.90397 31.0322C8.28711 34.6997 13.1289 37 18.5 37C23.8711 37 28.7129 34.6985 32.096 31.0322C35.139 27.7341 37 23.3303 37 18.5C37 8.2998 28.7015 0 18.5 0ZM18.5 21.3728C14.0289 21.3728 10.4033 17.7485 10.4033 13.2761C10.4033 8.80378 14.0289 5.17944 18.5 5.17944C22.9711 5.17944 26.5967 8.80378 26.5967 13.2761C26.5967 17.7485 22.9711 21.3728 18.5 21.3728C24.3891 21.3728 29.4517 24.9108 31.6809 29.976C28.473 33.6549 23.7543 35.9844 18.5 35.9844C13.2457 35.9844 8.52704 33.6549 5.31908 29.976C7.54827 24.9108 12.6097 21.3728 18.5 21.3728Z" fill="#CDCDCD"/>
</g>
<defs>
<clipPath id="clip0_7_240">
<rect width="37" height="37" fill="white"/>
</clipPath>
</defs>
</svg>
