<svg width="16" height="20" viewBox="0 0 16 20" fill="none" xmlns="http://www.w3.org/2000/svg">
<path d="M15.6182 5.17727C15.5879 5.09091 15.5409 5.01364 15.4758 4.95L10.706 0.181818C10.606 0.0818183 10.4758 0.021212 10.3348 0.00757564V0H2.94696C2.5803 0 1.64242 0.0833334 0.863629 0.863637C0.307568 1.4197 0 2.16061 0 2.94697V17.053C0 18.6773 1.3212 20 2.94696 20H12.7091C14.3333 20 15.6561 18.6788 15.6561 17.053V5.17727H15.6167H15.6182ZM12.6 4.76818C11.656 4.76818 10.8879 4 10.8879 3.05606V2.10758L13.5485 4.76818H12.6ZM12.6 6.00303H14.4227V17.053C14.4227 17.997 13.6545 18.7652 12.7106 18.7652H2.94848C2.00454 18.7652 1.23635 17.997 1.23635 17.053V2.94697C1.23635 2.48939 1.41515 2.05909 1.73787 1.73636C2.20303 1.27121 2.78181 1.23485 2.94848 1.23485H9.65302V3.05606C9.65302 4.6803 10.9757 6.00303 12.6 6.00303Z" fill="white"/>
<path d="M4.01959 10.7697C3.95898 10.7697 3.8999 10.7469 3.85444 10.7L3.29839 10.1363C3.20749 10.0454 3.20898 9.89692 3.29989 9.80753C3.3908 9.71662 3.53929 9.71813 3.62869 9.81056L4.02566 10.2121L4.83324 9.45753C4.92718 9.36965 5.07414 9.3742 5.16202 9.46813C5.2499 9.56207 5.24536 9.70904 5.15142 9.79692L4.17869 10.706C4.13323 10.7484 4.07565 10.7681 4.01959 10.7681V10.7697Z" fill="white"/>
<path d="M4.01813 13.3531C3.95753 13.3531 3.89842 13.3304 3.85297 13.2834L3.29692 12.7198C3.20601 12.6274 3.20753 12.4804 3.29844 12.391C3.38935 12.3001 3.53782 12.3016 3.62721 12.3925L4.02418 12.7956L4.83177 12.041C4.92571 11.9531 5.07267 11.9577 5.16055 12.0516C5.24842 12.1456 5.24389 12.2925 5.14995 12.3804L4.17721 13.2895C4.13176 13.3319 4.07419 13.3516 4.01813 13.3516V13.3531Z" fill="white"/>
<path d="M11.9622 7.03174H6.93342C6.67585 7.03174 6.46826 7.24083 6.46826 7.49689C6.46826 7.75295 6.67736 7.96204 6.93342 7.96204H11.9622C12.2198 7.96204 12.4274 7.75295 12.4274 7.49689C12.4274 7.24083 12.2183 7.03174 11.9622 7.03174Z" fill="white"/>
<path d="M11.9622 9.6167H6.93342C6.67585 9.6167 6.46826 9.82579 6.46826 10.0819C6.46826 10.3379 6.67736 10.547 6.93342 10.547H11.9622C12.2198 10.547 12.4274 10.3379 12.4274 10.0819C12.4274 9.82579 12.2183 9.6167 11.9622 9.6167Z" fill="white"/>
<path d="M11.9622 12.2H6.93342C6.67585 12.2 6.46826 12.409 6.46826 12.6651C6.46826 12.9212 6.67736 13.1303 6.93342 13.1303H11.9622C12.2198 13.1303 12.4274 12.9212 12.4274 12.6651C12.4274 12.409 12.2183 12.2 11.9622 12.2Z" fill="white"/>
<path d="M11.9622 14.7832H6.93342C6.67585 14.7832 6.46826 14.9923 6.46826 15.2484C6.46826 15.5044 6.67736 15.7135 6.93342 15.7135H11.9622C12.2198 15.7135 12.4274 15.5044 12.4274 15.2484C12.4274 14.9923 12.2183 14.7832 11.9622 14.7832Z" fill="white"/>
<path d="M4.01813 8.19543C3.95753 8.19543 3.89842 8.1727 3.85297 8.12573L3.29692 7.5621C3.20601 7.46967 3.20753 7.3227 3.29844 7.23331C3.38935 7.1424 3.53782 7.14392 3.62721 7.23482L4.02418 7.63786L4.83177 6.88331C4.92571 6.79543 5.07267 6.79998 5.16055 6.89392C5.24842 6.98786 5.24389 7.13482 5.14995 7.2227L4.17721 8.13179C4.13176 8.17422 4.07419 8.19392 4.01813 8.19392V8.19543Z" fill="white"/>
<path d="M4.91691 16.1727H3.5351C3.40631 16.1727 3.30176 16.0682 3.30176 15.9394V14.5576C3.30176 14.4288 3.40631 14.3242 3.5351 14.3242H4.91691C5.0457 14.3242 5.15025 14.4288 5.15025 14.5576V15.9394C5.15025 16.0682 5.0457 16.1727 4.91691 16.1727ZM3.76995 15.7076H4.68509V14.7924H3.76995V15.7076Z"/>
</svg>
