<svg width="24" height="20" viewBox="0 0 24 20" fill="none" xmlns="http://www.w3.org/2000/svg">
<path d="M11.5421 5.37156C12.4219 5.37156 13.137 4.65648 13.137 3.77669C13.137 2.89689 12.4063 2.13867 11.5421 2.13867C10.678 2.13867 9.94727 2.88905 9.94727 3.77669C9.94727 4.66433 10.6623 5.37156 11.5421 5.37156Z" fill="white"/>
<path d="M4.49576 13.1995C3.63165 13.1995 2.90088 13.9498 2.90088 14.8375C2.90088 15.7251 3.61596 16.4324 4.49576 16.4324C5.37555 16.4324 6.09063 15.7173 6.09063 14.8375C6.09063 13.9577 5.35986 13.1995 4.49576 13.1995Z" fill="white"/>
<path d="M18.6182 11.0099C17.9502 11.0099 17.3175 11.1576 16.7462 11.419L14.55 7.8345C15.4638 7.01092 16.039 5.81999 16.039 4.49572C16.039 2.01713 14.0218 0 11.5432 0C9.06464 0 7.04752 2.01713 7.04752 4.49572C7.04752 5.82783 7.63056 7.0266 8.55481 7.85019L6.36774 11.4177C5.79777 11.155 5.16374 11.0086 4.49572 11.0086C2.01713 11.0086 0 13.0257 0 15.5043C0 17.9829 2.01713 20 4.49572 20C6.79522 20 8.696 18.2652 8.95876 16.035H14.1539C14.4179 18.2639 16.3187 20 18.6169 20C21.0955 20 23.1126 17.9829 23.1126 15.5043C23.1126 13.0257 21.0955 11.0086 18.6169 11.0086L18.6182 11.0099ZM8.0319 4.49703C8.0319 2.56095 9.60717 0.986993 11.5419 0.986993C13.4767 0.986993 15.052 2.56226 15.052 4.49703C15.052 5.90758 14.2153 7.12596 13.0113 7.68416V7.09066C13.0113 6.28015 12.3524 5.61997 11.5406 5.61997C10.7288 5.61997 10.0699 6.28015 10.0699 7.09066V7.68416C8.86725 7.12726 8.02929 5.90888 8.02929 4.49703H8.0319ZM9.24505 8.36002C9.9183 8.76136 10.704 8.99274 11.5419 8.99274C12.3799 8.99274 13.1826 8.75613 13.861 8.34695L16.0076 11.8491C14.95 12.6061 14.2336 13.8101 14.1356 15.1827H8.97967C8.88163 13.8101 8.16524 12.6061 7.10765 11.8491L9.24636 8.36002H9.24505ZM5.9651 18.6927V18.1502C5.9651 17.3397 5.30623 16.6795 4.49441 16.6795C3.68259 16.6795 3.02373 17.3397 3.02373 18.1502V18.6927C1.82103 18.1358 0.983073 16.9174 0.983073 15.5056C0.983073 13.5695 2.55834 11.9956 4.4931 11.9956C6.42787 11.9956 8.00314 13.5708 8.00314 15.5056C8.00314 16.9161 7.16649 18.1345 5.96249 18.6927H5.9651ZM20.0876 18.6927V18.1502C20.0876 17.3397 19.4287 16.6795 18.6169 16.6795C17.8051 16.6795 17.1462 17.3397 17.1462 18.1502V18.6927C15.9435 18.1358 15.1056 16.9174 15.1056 15.5056C15.1056 13.5695 16.6808 11.9956 18.6156 11.9956C20.5504 11.9956 22.1256 13.5708 22.1256 15.5056C22.1256 16.9161 21.289 18.1345 20.085 18.6927H20.0876Z" fill="white"/>
<path d="M18.6183 13.1995C17.7542 13.1995 17.0234 13.9498 17.0234 14.8375C17.0234 15.7251 17.7385 16.4324 18.6183 16.4324C19.4981 16.4324 20.2132 15.7173 20.2132 14.8375C20.2132 13.9577 19.4824 13.1995 18.6183 13.1995Z"/>
</svg>
